<?xml version="1.0" standalone="no"?>
<svg width="1100" height ="750" viewBox = "0 0 1100 750"
version = "1.1" xmlns="http://www.w3.org/2000/svg" xmlns:xlink="http://www.w3.org/1999/xlink">
<!-- Creation date and time _2024-02-24.14_07_51.-->

<!-- _________________________________________________________ -->
<g transform="translate(0, 0)">
   <rect id="Basic" x="0" y="0" width="102" height="102" stroke-width="2" stroke="black" fill="lightgrey" />
   <g transform=" translate(18, 78)  ">
<polyline stroke="black" points="0,-0   70,-0   35,-60.6218   -0.175,0.303109   0.175,-0.101036   35,-20.2073   35,-60.6218   35,-20.2073   70,-0   " style="fill:none; stroke-width:3 stroke-linejoin:round; stroke-linecap:round"
 />
<text style = "font-family:sans-serif; font-weight:bold; font-size:16px" x = "44" y = "-7" >T</text><text style = "font-family:sans-serif; font-weight:bold; font-size:16px" x = "50" y = "-23" >P</text><text style = "font-family:sans-serif; font-weight:bold; font-size:16px" x = "10" y = "-23" >Q</text><text style = "font-family:sans-serif; font-weight:bold; font-size:16px" x = "29" y = "-29" >U</text><text style = "font-family:sans-serif; font-weight:bold; font-size:16px" x = "29" y = "5" >R</text><text style = "font-family:sans-serif; font-weight:bold; font-size:16px" x = "10" y = "-4" >S</text>
</g>
</g>


<!-- _________________________________________________________ -->
<g transform="translate(100, 0)">
   <rect id="Basic" x="0" y="0" width="102" height="102" stroke-width="2" stroke="black" fill="none" />
<text style = "font-family:sans-serif; font-weight:bold; font-size:75px" x = "28" y = "80" >C</text>
</g>


<!-- _________________________________________________________ -->
<g transform="translate(200, 0)">
   <rect id="Basic" x="0" y="0" width="102" height="102" stroke-width="2" stroke="black" fill="none" />
<text style = "font-family:sans-serif; font-weight:bold; font-size:75px" x = "28" y = "80" >T</text>
</g>


<!-- _________________________________________________________ -->
<g transform="translate(300, 0)">
   <rect id="Basic" x="0" y="0" width="102" height="102" stroke-width="2" stroke="black" fill="none" />
<text style = "font-family:sans-serif; font-weight:bold; font-size:75px" x = "28" y = "80" >R</text>
</g>


<!-- _________________________________________________________ -->
<g transform="translate(400, 0)">
   <rect id="Basic" x="0" y="0" width="102" height="102" stroke-width="2" stroke="black" fill="none" />
<text style = "font-family:sans-serif; font-weight:bold; font-size:75px" x = "28" y = "80" >O</text>
</g>


<!-- _________________________________________________________ -->
<g transform="translate(500, 0)">
   <rect id="Basic" x="0" y="0" width="102" height="102" stroke-width="2" stroke="black" fill="none" />
<text style = "font-family:sans-serif; font-weight:bold; font-size:75px" x = "28" y = "80" >O</text>
</g>


<!-- _________________________________________________________ -->
<g transform="translate(600, 0)">
   <rect id="Basic" x="0" y="0" width="102" height="102" stroke-width="2" stroke="black" fill="none" />
<text style = "font-family:sans-serif; font-weight:bold; font-size:75px" x = "28" y = "80" >M</text>
</g>


<!-- _________________________________________________________ -->
<g transform="translate(700, 0)">
   <rect id="Basic" x="0" y="0" width="102" height="102" stroke-width="2" stroke="black" fill="none" />
<text style = "font-family:sans-serif; font-weight:bold; font-size:75px" x = "28" y = "80" >M</text>
</g>


<!-- _________________________________________________________ -->
<g transform="translate(800, 0)">
   <rect id="Basic" x="0" y="0" width="102" height="102" stroke-width="2" stroke="black" fill="none" />
<text style = "font-family:sans-serif; font-weight:bold; font-size:75px" x = "28" y = "80" >A</text>
</g>


<!-- _________________________________________________________ -->
<g transform="translate(900, 0)">
   <rect id="Basic" x="0" y="0" width="102" height="102" stroke-width="2" stroke="black" fill="none" />
<text style = "font-family:sans-serif; font-weight:bold; font-size:75px" x = "28" y = "80" >H</text>
</g>


<!-- _________________________________________________________ -->
<g transform="translate(0, 100)">
   <rect id="Basic" x="0" y="0" width="102" height="102" stroke-width="2" stroke="black" fill="none" />
<text style = "font-family:sans-serif; font-weight:bold; font-size:75px" x = "28" y = "80" >1</text>
</g>


<!-- _________________________________________________________ -->
<g transform="translate(100, 100)">
   <g transform=" translate(24, 75)  ">
<polyline stroke="black" points="0,-0   70,-0   35,-60.6218   -0.175,0.303109   0.175,-0.101036   35,-20.2073   35,-60.6218   35,-20.2073   70,-0   " style="fill:none; stroke-width:3 stroke-linejoin:round; stroke-linecap:round"
 />
<line id="oneSlash" x1="57.3497" y1="-33.1109" x2="47.6503" y2="-27.5109" style="stroke:rgb(0,0,0);stroke-width:3"/>
<line id="oneSlash" x1="12.6503" y1="-33.1109" x2="22.3497" y2="-27.5109" style="stroke:rgb(0,0,0);stroke-width:3"/>
<line id="oneSlash" x1="35" y1="-5.6" x2="35" y2="5.6" style="stroke:rgb(0,0,0);stroke-width:3"/>
<line id="oneSlash" x1="14.7" y1="-14.9534" x2="20.3" y2="-5.25389" style="stroke:rgb(0,0,0);stroke-width:3"/>
<line id="oneSlash" x1="55.3" y1="-14.9534" x2="49.7" y2="-5.25389" style="stroke:rgb(0,0,0);stroke-width:3"/>
<line id="oneSlash" x1="40.6" y1="-40.4145" x2="29.4" y2="-40.4145" style="stroke:rgb(0,0,0);stroke-width:3"/>


</g>
   <rect id="Basic" x="0" y="0" width="102" height="102" stroke-width="2" stroke="black" fill="none" />
<text style = "font-family:sans-serif; font-weight:bold; font-size:25px" x = "5" y = "25" >C1</text>
<text style = "font-family:sans-serif; font-weight:bold; font-size:16px" x = "5" y = "95" >cI</text>
<text style = "font-family:sans-serif; font-weight:bold; font-size:16px" x = "32" y = "95" >(rrr rrr)</text>
</g>


<!-- _________________________________________________________ -->
<g transform="translate(200, 100)">
   <g transform=" translate(24, 75)  ">
<polyline stroke="black" points="0,-0   70,-0   35,-60.6218   -0.175,0.303109   0.175,-0.101036   35,-20.2073   35,-60.6218   35,-20.2073   70,-0   " style="fill:none; stroke-width:3 stroke-linejoin:round; stroke-linecap:round"
 />
<line id="oneSlash" x1="57.3497" y1="-33.1109" x2="47.6503" y2="-27.5109" style="stroke:rgb(0,0,0);stroke-width:3"/>
<line id="oneSlash" x1="12.6503" y1="-33.1109" x2="22.3497" y2="-27.5109" style="stroke:rgb(0,0,0);stroke-width:3"/>
<line id="mult2Slash" x1="33" y1="-5.6" x2="33" y2="5.6" style="stroke:rgb(0,0,0);stroke-width:3"/>
<line id="mult2Slash" x1="37" y1="-5.6" x2="37" y2="5.6" style="stroke:rgb(0,0,0);stroke-width:3"/>
<line id="oneSlash" x1="14.7" y1="-14.9534" x2="20.3" y2="-5.25389" style="stroke:rgb(0,0,0);stroke-width:3"/>
<line id="oneSlash" x1="55.3" y1="-14.9534" x2="49.7" y2="-5.25389" style="stroke:rgb(0,0,0);stroke-width:3"/>
<line id="mult2Slash" x1="40.6" y1="-42.4145" x2="29.4" y2="-42.4145" style="stroke:rgb(0,0,0);stroke-width:3"/>
<line id="mult2Slash" x1="40.6" y1="-38.4145" x2="29.4" y2="-38.4145" style="stroke:rgb(0,0,0);stroke-width:3"/>


</g>
   <rect id="Basic" x="0" y="0" width="102" height="102" stroke-width="2" stroke="black" fill="none" />
<text style = "font-family:sans-serif; font-weight:bold; font-size:25px" x = "5" y = "25" >T1</text>
<text style = "font-family:sans-serif; font-weight:bold; font-size:16px" x = "5" y = "95" >tI</text>
<text style = "font-family:sans-serif; font-weight:bold; font-size:16px" x = "32" y = "95" >(rrs rrs)</text>
</g>


<!-- _________________________________________________________ -->
<g transform="translate(300, 100)">
   <g transform=" translate(24, 75)  ">
<polyline stroke="black" points="0,-0   70,-0   35,-60.6218   -0.175,0.303109   0.175,-0.101036   35,-20.2073   35,-60.6218   35,-20.2073   70,-0   " style="fill:none; stroke-width:3 stroke-linejoin:round; stroke-linecap:round"
 />
<line id="oneSlash" x1="57.3497" y1="-33.1109" x2="47.6503" y2="-27.5109" style="stroke:rgb(0,0,0);stroke-width:3"/>
<line id="oneSlash" x1="12.6503" y1="-33.1109" x2="22.3497" y2="-27.5109" style="stroke:rgb(0,0,0);stroke-width:3"/>
<line id="oneSlash" x1="35" y1="-5.6" x2="35" y2="5.6" style="stroke:rgb(0,0,0);stroke-width:3"/>
<line id="mult2Slash" x1="12.9679" y1="-13.9534" x2="18.5679" y2="-4.25389" style="stroke:rgb(0,0,0);stroke-width:3"/>
<line id="mult2Slash" x1="16.4321" y1="-15.9534" x2="22.0321" y2="-6.25389" style="stroke:rgb(0,0,0);stroke-width:3"/>
<line id="mult2Slash" x1="53.5679" y1="-15.9534" x2="47.9679" y2="-6.25389" style="stroke:rgb(0,0,0);stroke-width:3"/>
<line id="mult2Slash" x1="57.0321" y1="-13.9534" x2="51.4321" y2="-4.25389" style="stroke:rgb(0,0,0);stroke-width:3"/>
<line id="mult2Slash" x1="40.6" y1="-42.4145" x2="29.4" y2="-42.4145" style="stroke:rgb(0,0,0);stroke-width:3"/>
<line id="mult2Slash" x1="40.6" y1="-38.4145" x2="29.4" y2="-38.4145" style="stroke:rgb(0,0,0);stroke-width:3"/>


</g>
   <rect id="Basic" x="0" y="0" width="102" height="102" stroke-width="2" stroke="black" fill="none" />
<text style = "font-family:sans-serif; font-weight:bold; font-size:25px" x = "5" y = "25" >R1</text>
<text style = "font-family:sans-serif; font-weight:bold; font-size:16px" x = "5" y = "95" >hR</text>
<text style = "font-family:sans-serif; font-weight:bold; font-size:16px" x = "32" y = "95" >(rrr sss)</text>
</g>


<!-- _________________________________________________________ -->
<g transform="translate(400, 100)">
   <g transform=" translate(24, 75)  ">
<polyline stroke="black" points="0,-0   70,-0   35,-60.6218   -0.175,0.303109   0.175,-0.101036   35,-20.2073   35,-60.6218   35,-20.2073   70,-0   " style="fill:none; stroke-width:3 stroke-linejoin:round; stroke-linecap:round"
 />
<line id="oneSlash" x1="57.3497" y1="-33.1109" x2="47.6503" y2="-27.5109" style="stroke:rgb(0,0,0);stroke-width:3"/>
<line id="oneSlash" x1="12.6503" y1="-33.1109" x2="22.3497" y2="-27.5109" style="stroke:rgb(0,0,0);stroke-width:3"/>
<line id="oneSlash" x1="14.7" y1="-14.9534" x2="20.3" y2="-5.25389" style="stroke:rgb(0,0,0);stroke-width:3"/>
<line id="oneSlash" x1="55.3" y1="-14.9534" x2="49.7" y2="-5.25389" style="stroke:rgb(0,0,0);stroke-width:3"/>


</g>
   <rect id="Basic" x="0" y="0" width="102" height="102" stroke-width="2" stroke="black" fill="none" />
<text style = "font-family:sans-serif; font-weight:bold; font-size:25px" x = "5" y = "25" >O1A</text>
<text style = "font-family:sans-serif; font-weight:bold; font-size:16px" x = "5" y = "95" >oF</text>
<text style = "font-family:sans-serif; font-weight:bold; font-size:16px" x = "32" y = "95" >(rrs rrt)</text>
</g>


<!-- _________________________________________________________ -->
<g transform="translate(500, 100)">
   <g transform=" translate(24, 75)  ">
<polyline stroke="black" points="0,-0   70,-0   35,-60.6218   -0.175,0.303109   0.175,-0.101036   35,-20.2073   35,-60.6218   35,-20.2073   70,-0   " style="fill:none; stroke-width:3 stroke-linejoin:round; stroke-linecap:round"
 />
<line id="oneSlash" x1="57.3497" y1="-33.1109" x2="47.6503" y2="-27.5109" style="stroke:rgb(0,0,0);stroke-width:3"/>
<line id="mult2Slash" x1="11.6503" y1="-31.3788" x2="21.3497" y2="-25.7788" style="stroke:rgb(0,0,0);stroke-width:3"/>
<line id="mult2Slash" x1="13.6503" y1="-34.8429" x2="23.3497" y2="-29.2429" style="stroke:rgb(0,0,0);stroke-width:3"/>
<line id="mult3Slash" x1="31" y1="5.6" x2="31" y2="-5.6" style="stroke:rgb(0,0,0);stroke-width:3"/>
<line id="mult3Slash" x1="35" y1="5.6" x2="35" y2="-5.6" style="stroke:rgb(0,0,0);stroke-width:3"/>
<line id="mult3Slash" x1="39" y1="5.6" x2="39" y2="-5.6" style="stroke:rgb(0,0,0);stroke-width:3"/>
<line id="mult3Slash" x1="35" y1="5.6" x2="35" y2="-5.6" style="stroke:rgb(0,0,0);stroke-width:3"/>
<line id="mult3Slash" x1="35" y1="5.6" x2="35" y2="-5.6" style="stroke:rgb(0,0,0);stroke-width:3"/>
<line id="oneSlash" x1="14.7" y1="-14.9534" x2="20.3" y2="-5.25389" style="stroke:rgb(0,0,0);stroke-width:3"/>
<line id="mult2Slash" x1="53.5679" y1="-15.9534" x2="47.9679" y2="-6.25389" style="stroke:rgb(0,0,0);stroke-width:3"/>
<line id="mult2Slash" x1="57.0321" y1="-13.9534" x2="51.4321" y2="-4.25389" style="stroke:rgb(0,0,0);stroke-width:3"/>
<line id="mult3Slash" x1="29.4" y1="-44.4145" x2="40.6" y2="-44.4145" style="stroke:rgb(0,0,0);stroke-width:3"/>
<line id="mult3Slash" x1="29.4" y1="-40.4145" x2="40.6" y2="-40.4145" style="stroke:rgb(0,0,0);stroke-width:3"/>
<line id="mult3Slash" x1="29.4" y1="-36.4145" x2="40.6" y2="-36.4145" style="stroke:rgb(0,0,0);stroke-width:3"/>
<line id="mult3Slash" x1="29.4" y1="-40.4145" x2="40.6" y2="-40.4145" style="stroke:rgb(0,0,0);stroke-width:3"/>
<line id="mult3Slash" x1="29.4" y1="-40.4145" x2="40.6" y2="-40.4145" style="stroke:rgb(0,0,0);stroke-width:3"/>


</g>
   <rect id="Basic" x="0" y="0" width="102" height="102" stroke-width="2" stroke="black" fill="none" />
<text style = "font-family:sans-serif; font-weight:bold; font-size:25px" x = "5" y = "25" >O1B</text>
<text style = "font-family:sans-serif; font-weight:bold; font-size:16px" x = "5" y = "95" >oI</text>
<text style = "font-family:sans-serif; font-weight:bold; font-size:16px" x = "32" y = "95" >(rst rst)</text>
</g>


<!-- _________________________________________________________ -->
<g transform="translate(600, 100)">
   <g transform=" translate(24, 75)  ">
<polyline stroke="black" points="0,-0   70,-0   35,-60.6218   -0.175,0.303109   0.175,-0.101036   35,-20.2073   35,-60.6218   35,-20.2073   70,-0   " style="fill:none; stroke-width:3 stroke-linejoin:round; stroke-linecap:round"
 />
<line id="oneSlash" x1="57.3497" y1="-33.1109" x2="47.6503" y2="-27.5109" style="stroke:rgb(0,0,0);stroke-width:3"/>
<line id="oneSlash" x1="12.6503" y1="-33.1109" x2="22.3497" y2="-27.5109" style="stroke:rgb(0,0,0);stroke-width:3"/>
<line id="mult2Slash" x1="12.9679" y1="-13.9534" x2="18.5679" y2="-4.25389" style="stroke:rgb(0,0,0);stroke-width:3"/>
<line id="mult2Slash" x1="16.4321" y1="-15.9534" x2="22.0321" y2="-6.25389" style="stroke:rgb(0,0,0);stroke-width:3"/>
<line id="mult2Slash" x1="53.5679" y1="-15.9534" x2="47.9679" y2="-6.25389" style="stroke:rgb(0,0,0);stroke-width:3"/>
<line id="mult2Slash" x1="57.0321" y1="-13.9534" x2="51.4321" y2="-4.25389" style="stroke:rgb(0,0,0);stroke-width:3"/>


</g>
   <rect id="Basic" x="0" y="0" width="102" height="102" stroke-width="2" stroke="black" fill="none" />
<text style = "font-family:sans-serif; font-weight:bold; font-size:25px" x = "5" y = "25" >M1A</text>
<text style = "font-family:sans-serif; font-weight:bold; font-size:16px" x = "5" y = "95" >mC</text>
<text style = "font-family:sans-serif; font-weight:bold; font-size:16px" x = "32" y = "95" >(rrs ttu)</text>
</g>


<!-- _________________________________________________________ -->
<g transform="translate(700, 100)">
   <g transform=" translate(24, 75)  ">
<polyline stroke="black" points="0,-0   70,-0   35,-60.6218   -0.175,0.303109   0.175,-0.101036   35,-20.2073   35,-60.6218   35,-20.2073   70,-0   " style="fill:none; stroke-width:3 stroke-linejoin:round; stroke-linecap:round"
 />
<line id="oneSlash" x1="57.3497" y1="-33.1109" x2="47.6503" y2="-27.5109" style="stroke:rgb(0,0,0);stroke-width:3"/>
<line id="mult2Slash" x1="11.6503" y1="-31.3788" x2="21.3497" y2="-25.7788" style="stroke:rgb(0,0,0);stroke-width:3"/>
<line id="mult2Slash" x1="13.6503" y1="-34.8429" x2="23.3497" y2="-29.2429" style="stroke:rgb(0,0,0);stroke-width:3"/>
<line id="oneSlash" x1="14.7" y1="-14.9534" x2="20.3" y2="-5.25389" style="stroke:rgb(0,0,0);stroke-width:3"/>
<line id="mult2Slash" x1="53.5679" y1="-15.9534" x2="47.9679" y2="-6.25389" style="stroke:rgb(0,0,0);stroke-width:3"/>
<line id="mult2Slash" x1="57.0321" y1="-13.9534" x2="51.4321" y2="-4.25389" style="stroke:rgb(0,0,0);stroke-width:3"/>


</g>
   <rect id="Basic" x="0" y="0" width="102" height="102" stroke-width="2" stroke="black" fill="none" />
<text style = "font-family:sans-serif; font-weight:bold; font-size:25px" x = "5" y = "25" >M1B</text>
<text style = "font-family:sans-serif; font-weight:bold; font-size:16px" x = "5" y = "95" >mC</text>
<text style = "font-family:sans-serif; font-weight:bold; font-size:16px" x = "32" y = "95" >(rst rsu)</text>
</g>


<!-- _________________________________________________________ -->
<g transform="translate(800, 100)">
   <g transform=" translate(24, 75)  ">
<polyline stroke="black" points="0,-0   70,-0   35,-60.6218   -0.175,0.303109   0.175,-0.101036   35,-20.2073   35,-60.6218   35,-20.2073   70,-0   " style="fill:none; stroke-width:3 stroke-linejoin:round; stroke-linecap:round"
 />


</g>
   <rect id="Basic" x="0" y="0" width="102" height="102" stroke-width="2" stroke="black" fill="none" />
<text style = "font-family:sans-serif; font-weight:bold; font-size:25px" x = "5" y = "25" >A1</text>
<text style = "font-family:sans-serif; font-weight:bold; font-size:16px" x = "5" y = "95" >aP</text>
<text style = "font-family:sans-serif; font-weight:bold; font-size:16px" x = "32" y = "95" >(rst uvw)</text>
</g>


<!-- _________________________________________________________ -->
<g transform="translate(900, 100)">
   <rect id="Basic" x="0" y="0" width="102" height="102" stroke-width="2" stroke="black" fill="gray" />
</g>


<!-- _________________________________________________________ -->
<g transform="translate(0, 200)">
   <rect id="Basic" x="0" y="0" width="102" height="102" stroke-width="2" stroke="black" fill="none" />
<text style = "font-family:sans-serif; font-weight:bold; font-size:75px" x = "28" y = "80" >2</text>
</g>


<!-- _________________________________________________________ -->
<g transform="translate(100, 200)">
   <rect id="Basic" x="0" y="0" width="102" height="102" stroke-width="2" stroke="black" fill="gray" />
</g>


<!-- _________________________________________________________ -->
<g transform="translate(200, 200)">
   <g transform=" translate(24, 75)  ">
<polyline stroke="black" points="0,-0   70,-0   35,-60.6218   -0.175,0.303109   0.175,-0.101036   35,-20.2073   35,-60.6218   35,-20.2073   70,-0   " style="fill:none; stroke-width:3 stroke-linejoin:round; stroke-linecap:round"
 />
<line id="oneSlash" x1="57.3497" y1="-33.1109" x2="47.6503" y2="-27.5109" style="stroke:rgb(0,0,0);stroke-width:3"/>
<line id="oneSlash" x1="12.6503" y1="-33.1109" x2="22.3497" y2="-27.5109" style="stroke:rgb(0,0,0);stroke-width:3"/>
   <text id="cP" x="31" y="6" style="font-family:sans-serif; font-size=:26; font-weight:bold; ">0</text>

<line id="oneSlash" x1="14.7" y1="-14.9534" x2="20.3" y2="-5.25389" style="stroke:rgb(0,0,0);stroke-width:3"/>
<line id="oneSlash" x1="55.3" y1="-14.9534" x2="49.7" y2="-5.25389" style="stroke:rgb(0,0,0);stroke-width:3"/>


</g>
   <rect id="Basic" x="0" y="0" width="102" height="102" stroke-width="2" stroke="black" fill="none" />
<text style = "font-family:sans-serif; font-weight:bold; font-size:25px" x = "5" y = "25" >T2</text>
<text style = "font-family:sans-serif; font-weight:bold; font-size:16px" x = "5" y = "95" >tI</text>
<text style = "font-family:sans-serif; font-weight:bold; font-size:16px" x = "32" y = "95" >(rr0 rrs)</text>
</g>


<!-- _________________________________________________________ -->
<g transform="translate(300, 200)">
   <rect id="Basic" x="0" y="0" width="102" height="102" stroke-width="2" stroke="black" fill="gray" />
</g>


<!-- _________________________________________________________ -->
<g transform="translate(400, 200)">
   <g transform=" translate(24, 75)  ">
<polyline stroke="black" points="0,-0   70,-0   35,-60.6218   -0.175,0.303109   0.175,-0.101036   35,-20.2073   35,-60.6218   35,-20.2073   70,-0   " style="fill:none; stroke-width:3 stroke-linejoin:round; stroke-linecap:round"
 />
<line id="oneSlash" x1="57.3497" y1="-33.1109" x2="47.6503" y2="-27.5109" style="stroke:rgb(0,0,0);stroke-width:3"/>
<line id="mult2Slash" x1="11.6503" y1="-31.3788" x2="21.3497" y2="-25.7788" style="stroke:rgb(0,0,0);stroke-width:3"/>
<line id="mult2Slash" x1="13.6503" y1="-34.8429" x2="23.3497" y2="-29.2429" style="stroke:rgb(0,0,0);stroke-width:3"/>
   <text id="cP" x="31" y="6" style="font-family:sans-serif; font-size=:26; font-weight:bold; ">0</text>

<line id="mult2Slash" x1="12.9679" y1="-13.9534" x2="18.5679" y2="-4.25389" style="stroke:rgb(0,0,0);stroke-width:3"/>
<line id="mult2Slash" x1="16.4321" y1="-15.9534" x2="22.0321" y2="-6.25389" style="stroke:rgb(0,0,0);stroke-width:3"/>
<line id="oneSlash" x1="55.3" y1="-14.9534" x2="49.7" y2="-5.25389" style="stroke:rgb(0,0,0);stroke-width:3"/>


</g>
   <rect id="Basic" x="0" y="0" width="102" height="102" stroke-width="2" stroke="black" fill="none" />
<text style = "font-family:sans-serif; font-weight:bold; font-size:25px" x = "5" y = "25" >O2</text>
<text style = "font-family:sans-serif; font-weight:bold; font-size:16px" x = "5" y = "95" >oI</text>
<text style = "font-family:sans-serif; font-weight:bold; font-size:16px" x = "32" y = "95" >(rs0 srt)</text>
</g>


<!-- _________________________________________________________ -->
<g transform="translate(500, 200)">
   <rect id="Basic" x="0" y="0" width="102" height="102" stroke-width="2" stroke="black" fill="gray" />
</g>


<!-- _________________________________________________________ -->
<g transform="translate(600, 200)">
   <g transform=" translate(24, 75)  ">
<polyline stroke="black" points="0,-0   70,-0   35,-60.6218   -0.175,0.303109   0.175,-0.101036   35,-20.2073   35,-60.6218   35,-20.2073   70,-0   " style="fill:none; stroke-width:3 stroke-linejoin:round; stroke-linecap:round"
 />
<line id="oneSlash" x1="12.6503" y1="-33.1109" x2="22.3497" y2="-27.5109" style="stroke:rgb(0,0,0);stroke-width:3"/>
   <text id="cP" x="31" y="6" style="font-family:sans-serif; font-size=:26; font-weight:bold; ">0</text>

<line id="oneSlash" x1="14.7" y1="-14.9534" x2="20.3" y2="-5.25389" style="stroke:rgb(0,0,0);stroke-width:3"/>


</g>
   <rect id="Basic" x="0" y="0" width="102" height="102" stroke-width="2" stroke="black" fill="none" />
<text style = "font-family:sans-serif; font-weight:bold; font-size:25px" x = "5" y = "25" >M2A</text>
<text style = "font-family:sans-serif; font-weight:bold; font-size:16px" x = "5" y = "95" >mC</text>
<text style = "font-family:sans-serif; font-weight:bold; font-size:16px" x = "32" y = "95" >(rs0 stu)</text>
</g>


<!-- _________________________________________________________ -->
<g transform="translate(700, 200)">
   <rect id="Basic" x="0" y="0" width="102" height="102" stroke-width="2" stroke="black" fill="lightgrey" />
   <g transform=" translate(24, 75)  ">
<polyline stroke="black" points="0,-0   70,-0   35,-60.6218   -0.175,0.303109   0.175,-0.101036   35,-20.2073   35,-60.6218   35,-20.2073   70,-0   " style="fill:none; stroke-width:3 stroke-linejoin:round; stroke-linecap:round"
 />
<line id="oneSlash" x1="57.3497" y1="-33.1109" x2="47.6503" y2="-27.5109" style="stroke:rgb(0,0,0);stroke-width:3"/>
<line id="mult2Slash" x1="11.6503" y1="-31.3788" x2="21.3497" y2="-25.7788" style="stroke:rgb(0,0,0);stroke-width:3"/>
<line id="mult2Slash" x1="13.6503" y1="-34.8429" x2="23.3497" y2="-29.2429" style="stroke:rgb(0,0,0);stroke-width:3"/>
   <text id="cP" x="31" y="6" style="font-family:sans-serif; font-size=:26; font-weight:bold; ">0</text>

<line id="oneSlash" x1="14.7" y1="-14.9534" x2="20.3" y2="-5.25389" style="stroke:rgb(0,0,0);stroke-width:3"/>
<line id="mult2Slash" x1="53.5679" y1="-15.9534" x2="47.9679" y2="-6.25389" style="stroke:rgb(0,0,0);stroke-width:3"/>
<line id="mult2Slash" x1="57.0321" y1="-13.9534" x2="51.4321" y2="-4.25389" style="stroke:rgb(0,0,0);stroke-width:3"/>


</g>
<text style = "font-family:sans-serif; font-weight:bold; font-size:60px" x = "75" y = "55" >*</text>
<text style = "font-family:sans-serif; font-weight:bold; font-size:25px" x = "5" y = "25" >M2B</text>
<text style = "font-family:sans-serif; font-weight:bold; font-size:16px" x = "5" y = "95" >mC</text>
<text style = "font-family:sans-serif; font-weight:bold; font-size:16px" x = "32" y = "95" >(rs0 rst)</text>
</g>


<!-- _________________________________________________________ -->
<g transform="translate(800, 200)">
   <rect id="Basic" x="0" y="0" width="102" height="102" stroke-width="2" stroke="black" fill="lightgrey" />
   <g transform=" translate(24, 75)  ">
<polyline stroke="black" points="0,-0   70,-0   35,-60.6218   -0.175,0.303109   0.175,-0.101036   35,-20.2073   35,-60.6218   35,-20.2073   70,-0   " style="fill:none; stroke-width:3 stroke-linejoin:round; stroke-linecap:round"
 />
   <text id="cP" x="31" y="6" style="font-family:sans-serif; font-size=:26; font-weight:bold; ">0</text>



</g>
<text style = "font-family:sans-serif; font-weight:bold; font-size:60px" x = "75" y = "55" >*</text>
<text style = "font-family:sans-serif; font-weight:bold; font-size:25px" x = "5" y = "25" >A2</text>
<text style = "font-family:sans-serif; font-weight:bold; font-size:16px" x = "5" y = "95" >aP</text>
<text style = "font-family:sans-serif; font-weight:bold; font-size:16px" x = "32" y = "95" >(rs0 tuv)</text>
</g>


<!-- _________________________________________________________ -->
<g transform="translate(900, 200)">
   <rect id="Basic" x="0" y="0" width="102" height="102" stroke-width="2" stroke="black" fill="gray" />
</g>


<!-- _________________________________________________________ -->
<g transform="translate(0, 300)">
   <rect id="Basic" x="0" y="0" width="102" height="102" stroke-width="2" stroke="black" fill="none" />
<text style = "font-family:sans-serif; font-weight:bold; font-size:75px" x = "28" y = "80" >3</text>
</g>


<!-- _________________________________________________________ -->
<g transform="translate(100, 300)">
   <g transform=" translate(24, 75)  ">
<polyline stroke="black" points="0,-0   70,-0   35,-60.6218   -0.175,0.303109   0.175,-0.101036   35,-20.2073   35,-60.6218   35,-20.2073   70,-0   " style="fill:none; stroke-width:3 stroke-linejoin:round; stroke-linecap:round"
 />
<line id="oneSlash" x1="57.3497" y1="-33.1109" x2="47.6503" y2="-27.5109" style="stroke:rgb(0,0,0);stroke-width:3"/>
<line id="oneSlash" x1="12.6503" y1="-33.1109" x2="22.3497" y2="-27.5109" style="stroke:rgb(0,0,0);stroke-width:3"/>
   <text id="cP" x="31" y="6" style="font-family:sans-serif; font-size=:26; font-weight:bold; ">0</text>

<line id="oneSlash" x1="14.7" y1="-14.9534" x2="20.3" y2="-5.25389" style="stroke:rgb(0,0,0);stroke-width:3"/>
<line id="oneSlash" x1="55.3" y1="-14.9534" x2="49.7" y2="-5.25389" style="stroke:rgb(0,0,0);stroke-width:3"/>
   <text id="cP" x="31" y="-34.4145" style="font-family:sans-serif; font-size=:26; font-weight:bold; ">0</text>



</g>
   <rect id="Basic" x="0" y="0" width="102" height="102" stroke-width="2" stroke="black" fill="none" />
<text style = "font-family:sans-serif; font-weight:bold; font-size:25px" x = "5" y = "25" >C3</text>
<text style = "font-family:sans-serif; font-weight:bold; font-size:16px" x = "5" y = "95" >cF</text>
<text style = "font-family:sans-serif; font-weight:bold; font-size:16px" x = "32" y = "95" >(rr0 rr0)</text>
</g>


<!-- _________________________________________________________ -->
<g transform="translate(200, 300)">
   <rect id="Basic" x="0" y="0" width="102" height="102" stroke-width="2" stroke="black" fill="gray" />
</g>


<!-- _________________________________________________________ -->
<g transform="translate(300, 300)">
   <g transform=" translate(24, 75)  ">
<polyline stroke="black" points="0,-0   70,-0   35,-60.6218   -0.175,0.303109   0.175,-0.101036   35,-20.2073   35,-60.6218   35,-20.2073   70,-0   " style="fill:none; stroke-width:3 stroke-linejoin:round; stroke-linecap:round"
 />
<line id="oneSlash" x1="57.3497" y1="-33.1109" x2="47.6503" y2="-27.5109" style="stroke:rgb(0,0,0);stroke-width:3"/>
<line id="oneSlash" x1="12.6503" y1="-33.1109" x2="22.3497" y2="-27.5109" style="stroke:rgb(0,0,0);stroke-width:3"/>
   <text id="cP" x="31" y="6" style="font-family:sans-serif; font-size=:26; font-weight:bold; ">0</text>

<line id="oneSlash" x1="55.3" y1="-14.9534" x2="49.7" y2="-5.25389" style="stroke:rgb(0,0,0);stroke-width:3"/>
   <text id="cP" x="31" y="-34.4145" style="font-family:sans-serif; font-size=:26; font-weight:bold; ">0</text>



</g>
   <rect id="Basic" x="0" y="0" width="102" height="102" stroke-width="2" stroke="black" fill="none" />
<text style = "font-family:sans-serif; font-weight:bold; font-size:25px" x = "5" y = "25" >R3</text>
<text style = "font-family:sans-serif; font-weight:bold; font-size:16px" x = "5" y = "95" >hR</text>
<text style = "font-family:sans-serif; font-weight:bold; font-size:16px" x = "32" y = "95" >(rr0 sr0) </text>
</g>


<!-- _________________________________________________________ -->
<g transform="translate(400, 300)">
   <rect id="Basic" x="0" y="0" width="102" height="102" stroke-width="2" stroke="black" fill="lightgrey" />
   <g transform=" translate(24, 75)  ">
<polyline stroke="black" points="0,-0   70,-0   35,-60.6218   -0.175,0.303109   0.175,-0.101036   35,-20.2073   35,-60.6218   35,-20.2073   70,-0   " style="fill:none; stroke-width:3 stroke-linejoin:round; stroke-linecap:round"
 />
<line id="oneSlash" x1="57.3497" y1="-33.1109" x2="47.6503" y2="-27.5109" style="stroke:rgb(0,0,0);stroke-width:3"/>
<line id="mult2Slash" x1="11.6503" y1="-31.3788" x2="21.3497" y2="-25.7788" style="stroke:rgb(0,0,0);stroke-width:3"/>
<line id="mult2Slash" x1="13.6503" y1="-34.8429" x2="23.3497" y2="-29.2429" style="stroke:rgb(0,0,0);stroke-width:3"/>
   <text id="cP" x="31" y="6" style="font-family:sans-serif; font-size=:26; font-weight:bold; ">0</text>

<line id="oneSlash" x1="14.7" y1="-14.9534" x2="20.3" y2="-5.25389" style="stroke:rgb(0,0,0);stroke-width:3"/>
<line id="mult2Slash" x1="53.5679" y1="-15.9534" x2="47.9679" y2="-6.25389" style="stroke:rgb(0,0,0);stroke-width:3"/>
<line id="mult2Slash" x1="57.0321" y1="-13.9534" x2="51.4321" y2="-4.25389" style="stroke:rgb(0,0,0);stroke-width:3"/>
   <text id="cP" x="31" y="-34.4145" style="font-family:sans-serif; font-size=:26; font-weight:bold; ">0</text>



</g>
<text style = "font-family:sans-serif; font-weight:bold; font-size:60px" x = "75" y = "55" >*</text>
<text style = "font-family:sans-serif; font-weight:bold; font-size:25px" x = "5" y = "25" >O3</text>
<text style = "font-family:sans-serif; font-weight:bold; font-size:16px" x = "5" y = "95" >oI</text>
<text style = "font-family:sans-serif; font-weight:bold; font-size:16px" x = "32" y = "95" >(rs0 rs0)</text>
</g>


<!-- _________________________________________________________ -->
<g transform="translate(500, 300)">
   <rect id="Basic" x="0" y="0" width="102" height="102" stroke-width="2" stroke="black" fill="gray" />
</g>


<!-- _________________________________________________________ -->
<g transform="translate(600, 300)">
    <rect id="Basic" x="0" y="0" width="102" height="102" stroke-width="2" stroke="black" fill="lightgrey" />
  <g transform=" translate(24, 75)  ">
<polyline stroke="black" points="0,-0   70,-0   35,-60.6218   -0.175,0.303109   0.175,-0.101036   35,-20.2073   35,-60.6218   35,-20.2073   70,-0   " style="fill:none; stroke-width:3 stroke-linejoin:round; stroke-linecap:round"
 />
<line id="oneSlash" x1="12.6503" y1="-33.1109" x2="22.3497" y2="-27.5109" style="stroke:rgb(0,0,0);stroke-width:3"/>
   <text id="cP" x="31" y="6" style="font-family:sans-serif; font-size=:26; font-weight:bold; ">0</text>

<line id="oneSlash" x1="55.3" y1="-14.9534" x2="49.7" y2="-5.25389" style="stroke:rgb(0,0,0);stroke-width:3"/>
   <text id="cP" x="31" y="-34.4145" style="font-family:sans-serif; font-size=:26; font-weight:bold; ">0</text>



</g>
<text style = "font-family:sans-serif; font-weight:bold; font-size:60px" x = "75" y = "55" >*</text>
<text style = "font-family:sans-serif; font-weight:bold; font-size:25px" x = "5" y = "25" >M3</text>
<text style = "font-family:sans-serif; font-weight:bold; font-size:16px" x = "5" y = "95" >mC</text>
<text style = "font-family:sans-serif; font-weight:bold; font-size:16px" x = "32" y = "95" >(rs0 ts0)</text>
</g>


<!-- _________________________________________________________ -->
<g transform="translate(700, 300)">
   <rect id="Basic" x="0" y="0" width="102" height="102" stroke-width="2" stroke="black" fill="gray" />
</g>


<!-- _________________________________________________________ -->
<g transform="translate(800, 300)">
   <rect id="Basic" x="0" y="0" width="102" height="102" stroke-width="2" stroke="black" fill="lightgrey" />
   <g transform=" translate(24, 75)  ">
<polyline stroke="black" points="0,-0   70,-0   35,-60.6218   -0.175,0.303109   0.175,-0.101036   35,-20.2073   35,-60.6218   35,-20.2073   70,-0   " style="fill:none; stroke-width:3 stroke-linejoin:round; stroke-linecap:round"
 />
   <text id="cP" x="31" y="6" style="font-family:sans-serif; font-size=:26; font-weight:bold; ">0</text>

   <text id="cP" x="31" y="-34.4145" style="font-family:sans-serif; font-size=:26; font-weight:bold; ">0</text>



</g>
<text style = "font-family:sans-serif; font-weight:bold; font-size:60px" x = "75" y = "55" >*</text>
<text style = "font-family:sans-serif; font-weight:bold; font-size:25px" x = "5" y = "25" >A3</text>
<text style = "font-family:sans-serif; font-weight:bold; font-size:16px" x = "5" y = "95" >aP</text>
<text style = "font-family:sans-serif; font-weight:bold; font-size:16px" x = "32" y = "95" >(rs0 tu0)</text>
</g>


<!-- _________________________________________________________ -->
<g transform="translate(900, 300)">
   <rect id="Basic" x="0" y="0" width="102" height="102" stroke-width="2" stroke="black" fill="gray" />
</g>


<!-- _________________________________________________________ -->
<g transform="translate(0, 400)">
   <rect id="Basic" x="0" y="0" width="102" height="102" stroke-width="2" stroke="black" fill="none" />
<text style = "font-family:sans-serif; font-weight:bold; font-size:75px" x = "28" y = "80" >4</text>
</g>


<!-- _________________________________________________________ -->
<g transform="translate(100, 400)">
   <rect id="Basic" x="0" y="0" width="102" height="102" stroke-width="2" stroke="black" fill="gray" />
</g>


<!-- _________________________________________________________ -->
<g transform="translate(200, 400)">
   <rect id="Basic" x="0" y="0" width="102" height="102" stroke-width="2" stroke="black" fill="gray" />
</g>


<!-- _________________________________________________________ -->
<g transform="translate(300, 400)">
   <rect id="Basic" x="0" y="0" width="102" height="102" stroke-width="2" stroke="black" fill="gray" />
</g>


<!-- _________________________________________________________ -->
<g transform="translate(400, 400)">
   <g transform=" translate(24, 75)  ">
<polyline stroke="black" points="0,-0   70,-0   35,-60.6218   -0.175,0.303109   0.175,-0.101036   35,-20.2073   35,-60.6218   35,-20.2073   70,-0   " style="fill:none; stroke-width:3 stroke-linejoin:round; stroke-linecap:round"
 />
   <text id="cP" x="48.5" y="-24.3109" style="font-family:sans-serif; font-size=:26; font-weight:bold; ">0</text>

   <text id="cP" x="13.5" y="-24.3109" style="font-family:sans-serif; font-size=:26; font-weight:bold; ">0</text>

<line id="oneSlash" x1="14.7" y1="-14.9534" x2="20.3" y2="-5.25389" style="stroke:rgb(0,0,0);stroke-width:3"/>
<line id="oneSlash" x1="55.3" y1="-14.9534" x2="49.7" y2="-5.25389" style="stroke:rgb(0,0,0);stroke-width:3"/>


</g>
   <rect id="Basic" x="0" y="0" width="102" height="102" stroke-width="2" stroke="black" fill="none" />
<text style = "font-family:sans-serif; font-weight:bold; font-size:25px" x = "5" y = "25" >O4</text>
<text style = "font-family:sans-serif; font-weight:bold; font-size:16px" x = "5" y = "95" >oS</text>
<text style = "font-family:sans-serif; font-weight:bold; font-size:16px" x = "32" y = "95" >(00r sst)</text>
</g>


<!-- _________________________________________________________ -->
<g transform="translate(500, 400)">
   <rect id="Basic" x="0" y="0" width="102" height="102" stroke-width="2" stroke="black" fill="gray" />
</g>


<!-- _________________________________________________________ -->
<g transform="translate(600, 400)">
   <g transform=" translate(24, 75)  ">
<polyline stroke="black" points="0,-0   70,-0   35,-60.6218   -0.175,0.303109   0.175,-0.101036   35,-20.2073   35,-60.6218   35,-20.2073   70,-0   " style="fill:none; stroke-width:3 stroke-linejoin:round; stroke-linecap:round"
 />
   <text id="cP" x="48.5" y="-24.3109" style="font-family:sans-serif; font-size=:26; font-weight:bold; ">0</text>

   <text id="cP" x="13.5" y="-24.3109" style="font-family:sans-serif; font-size=:26; font-weight:bold; ">0</text>



</g>
   <rect id="Basic" x="0" y="0" width="102" height="102" stroke-width="2" stroke="black" fill="none" />
<text style = "font-family:sans-serif; font-weight:bold; font-size:25px" x = "5" y = "25" >M4</text>
<text style = "font-family:sans-serif; font-weight:bold; font-size:16px" x = "5" y = "95" >mP</text>
<text style = "font-family:sans-serif; font-weight:bold; font-size:16px" x = "32" y = "95" >(00r stu)</text>
</g>


<!-- _________________________________________________________ -->
<g transform="translate(700, 400)">
   <rect id="Basic" x="0" y="0" width="102" height="102" stroke-width="2" stroke="black" fill="gray" />
</g>


<!-- _________________________________________________________ -->
<g transform="translate(800, 400)">
   <rect id="Basic" x="0" y="0" width="102" height="102" stroke-width="2" stroke="black" fill="gray" />
</g>


<!-- _________________________________________________________ -->
<g transform="translate(900, 400)">
   <g transform=" translate(24, 75)  ">
<polyline stroke="black" points="0,-0   70,-0   35,-60.6218   -0.175,0.303109   0.175,-0.101036   35,-20.2073   35,-60.6218   35,-20.2073   70,-0   " style="fill:none; stroke-width:3 stroke-linejoin:round; stroke-linecap:round"
 />
   <text id="cP" x="48.5" y="-24.3109" style="font-family:sans-serif; font-size=:26; font-weight:bold; ">0</text>

   <text id="cP" x="13.5" y="-24.3109" style="font-family:sans-serif; font-size=:26; font-weight:bold; ">0</text>

<line id="oneSlash" x1="35" y1="-5.6" x2="35" y2="5.6" style="stroke:rgb(0,0,0);stroke-width:3"/>
<line id="oneSlash" x1="14.7" y1="-14.9534" x2="20.3" y2="-5.25389" style="stroke:rgb(0,0,0);stroke-width:3"/>
<line id="oneSlash" x1="55.3" y1="-14.9534" x2="49.7" y2="-5.25389" style="stroke:rgb(0,0,0);stroke-width:3"/>


</g>
   <rect id="Basic" x="0" y="0" width="102" height="102" stroke-width="2" stroke="black" fill="none" />
<text style = "font-family:sans-serif; font-weight:bold; font-size:25px" x = "5" y = "25" >H4</text>
<text style = "font-family:sans-serif; font-weight:bold; font-size:16px" x = "5" y = "95" >hP</text>
<text style = "font-family:sans-serif; font-weight:bold; font-size:16px" x = "32" y = "95" >(00r rrs)</text>
</g>


<!-- _________________________________________________________ -->
<g transform="translate(0, 500)">
   <rect id="Basic" x="0" y="0" width="102" height="102" stroke-width="2" stroke="black" fill="none" />
<text style = "font-family:sans-serif; font-weight:bold; font-size:75px" x = "28" y = "80" >5</text>
</g>


<!-- _________________________________________________________ -->
<g transform="translate(100, 500)">
   <g transform=" translate(24, 75)  ">
<polyline stroke="black" points="0,-0   70,-0   35,-60.6218   -0.175,0.303109   0.175,-0.101036   35,-20.2073   35,-60.6218   35,-20.2073   70,-0   " style="fill:none; stroke-width:3 stroke-linejoin:round; stroke-linecap:round"
 />
   <text id="cP" x="48.5" y="-24.3109" style="font-family:sans-serif; font-size=:26; font-weight:bold; ">0</text>

   <text id="cP" x="13.5" y="-24.3109" style="font-family:sans-serif; font-size=:26; font-weight:bold; ">0</text>

   <text id="cP" x="31" y="6" style="font-family:sans-serif; font-size=:26; font-weight:bold; ">0</text>

<line id="oneSlash" x1="14.7" y1="-14.9534" x2="20.3" y2="-5.25389" style="stroke:rgb(0,0,0);stroke-width:3"/>
<line id="oneSlash" x1="55.3" y1="-14.9534" x2="49.7" y2="-5.25389" style="stroke:rgb(0,0,0);stroke-width:3"/>
<line id="oneSlash" x1="40.6" y1="-40.4145" x2="29.4" y2="-40.4145" style="stroke:rgb(0,0,0);stroke-width:3"/>


</g>
   <rect id="Basic" x="0" y="0" width="102" height="102" stroke-width="2" stroke="black" fill="none" />
<text style = "font-family:sans-serif; font-weight:bold; font-size:25px" x = "5" y = "25" >C5</text>
<text style = "font-family:sans-serif; font-weight:bold; font-size:16px" x = "5" y = "95" >cP</text>
<text style = "font-family:sans-serif; font-weight:bold; font-size:16px" x = "32" y = "95" >(000 rrr)</text>
</g>


<!-- _________________________________________________________ -->
<g transform="translate(200, 500)">
   <g transform=" translate(24, 75)  ">
<polyline stroke="black" points="0,-0   70,-0   35,-60.6218   -0.175,0.303109   0.175,-0.101036   35,-20.2073   35,-60.6218   35,-20.2073   70,-0   " style="fill:none; stroke-width:3 stroke-linejoin:round; stroke-linecap:round"
 />
   <text id="cP" x="48.5" y="-24.3109" style="font-family:sans-serif; font-size=:26; font-weight:bold; ">0</text>

   <text id="cP" x="13.5" y="-24.3109" style="font-family:sans-serif; font-size=:26; font-weight:bold; ">0</text>

   <text id="cP" x="31" y="6" style="font-family:sans-serif; font-size=:26; font-weight:bold; ">0</text>

<line id="oneSlash" x1="14.7" y1="-14.9534" x2="20.3" y2="-5.25389" style="stroke:rgb(0,0,0);stroke-width:3"/>
<line id="oneSlash" x1="55.3" y1="-14.9534" x2="49.7" y2="-5.25389" style="stroke:rgb(0,0,0);stroke-width:3"/>


</g>
   <rect id="Basic" x="0" y="0" width="102" height="102" stroke-width="2" stroke="black" fill="none" />
<text style = "font-family:sans-serif; font-weight:bold; font-size:25px" x = "5" y = "25" >T5</text>
<text style = "font-family:sans-serif; font-weight:bold; font-size:16px" x = "5" y = "95" >tP</text>
<text style = "font-family:sans-serif; font-weight:bold; font-size:16px" x = "32" y = "95" >(000 rrs)</text>
</g>


<!-- _________________________________________________________ -->
<g transform="translate(300, 500)">
   <rect id="Basic" x="0" y="0" width="102" height="102" stroke-width="2" stroke="black" fill="gray" />
</g>


<!-- _________________________________________________________ -->
<g transform="translate(400, 500)">
   <g transform=" translate(24, 75)  ">
<polyline stroke="black" points="0,-0   70,-0   35,-60.6218   -0.175,0.303109   0.175,-0.101036   35,-20.2073   35,-60.6218   35,-20.2073   70,-0   " style="fill:none; stroke-width:3 stroke-linejoin:round; stroke-linecap:round"
 />
   <text id="cP" x="48.5" y="-24.3109" style="font-family:sans-serif; font-size=:26; font-weight:bold; ">0</text>

   <text id="cP" x="13.5" y="-24.3109" style="font-family:sans-serif; font-size=:26; font-weight:bold; ">0</text>

   <text id="cP" x="31" y="6" style="font-family:sans-serif; font-size=:26; font-weight:bold; ">0</text>



</g>
   <rect id="Basic" x="0" y="0" width="102" height="102" stroke-width="2" stroke="black" fill="none" />
<text style = "font-family:sans-serif; font-weight:bold; font-size:25px" x = "5" y = "25" >O5</text>
<text style = "font-family:sans-serif; font-weight:bold; font-size:16px" x = "5" y = "95" >oP</text>
<text style = "font-family:sans-serif; font-weight:bold; font-size:16px" x = "32" y = "95" >(000 rst)</text>
</g>


<!-- _________________________________________________________ -->
<g transform="translate(500, 500)">
   <rect id="Basic" x="0" y="0" width="102" height="102" stroke-width="2" stroke="black" fill="gray" />
</g>


<!-- _________________________________________________________ -->
<g transform="translate(600, 500)">
   <rect id="Basic" x="0" y="0" width="102" height="102" stroke-width="2" stroke="black" fill="gray" />
</g>


<!-- _________________________________________________________ -->
<g transform="translate(700, 500)">
   <rect id="Basic" x="0" y="0" width="102" height="102" stroke-width="2" stroke="black" fill="gray" />
</g>


<!-- _________________________________________________________ -->
<g transform="translate(800, 500)">
   <rect id="Basic" x="0" y="0" width="102" height="102" stroke-width="2" stroke="black" fill="gray" />
</g>


<!-- _________________________________________________________ -->
<g transform="translate(900, 500)">
   <rect id="Basic" x="0" y="0" width="102" height="102" stroke-width="2" stroke="black" fill="gray" />
</g>
<text style = "font-family:sans-serif; font-weight:bold; font-size:25px" x = "100" y="650">
* Not a full-dimensional Bravais typeB</text>

<text style = "font-family:sans-serif; font-weight:bold; font-size:18px" x = "150" y="670">
O3 is a 2-D manifold between O2 and O1B</text>

<text style = "font-family:sans-serif; font-weight:bold; font-size:18px" x = "150" y="690">
M3 is a 3-D manifold between M2A and M1B</text>

<text style = "font-family:sans-serif; font-weight:bold; font-size:18px" x = "150" y="710">
M2B is a 3-D manifold between M1A and M1B</text>

<text style = "font-family:sans-serif; font-weight:bold; font-size:18px" x = "100" y="740">
[modified after Delone, Galiulin, and Shtogrin, 1975]</text>


<!--
--><!-- Run Constants--></svg>